# xmcd
#
# Track frame offsets:
#	150
#	13116
#	35038
#	52566
#	69790
#	90812
#	109036
#	127049
#	152779
#	179244
#	192128
#	213104
#	243353
#
# Disc length: 3272 seconds
#
# Revision: 1
# Processed by: cddbd v1.5.2PL0 Copyright (c) Steve Scherf et al.
# Submitted via: audiograbber 1.83.01
#
DISCID=a20cc60d
DTITLE=Trinkler Andy - Three Mile Rd
DYEAR=2014
DGENRE=
TTITLE0=I Don't Need You Anymore
TTITLE1=Wrong Time, Wrong Place
TTITLE2=On '97 South
TTITLE3=Of Sticks And Stones
TTITLE4=Crossgate
TTITLE5=Cajun Moon
TTITLE6=The Whole Night Sky
TTITLE7=Plowing It Under
TTITLE8=Top Of The Fence
TTITLE9=San Juan Blues
TTITLE10=Don't Go To Spain
TTITLE11=Pancho and Lefty
TTITLE12=Bonus :-)
EXTD=
EXTT0=
EXTT1=
EXTT2=
EXTT3=
EXTT4=
EXTT5=
EXTT6=
EXTT7=
EXTT8=
EXTT9=
EXTT10=
EXTT11=
EXTT12=
PLAYORDER=
